<?xml version="1.0" encoding="utf-8"?><svg xml:space="preserve" viewBox="0 0 100 100" y="0" x="0" xmlns="http://www.w3.org/2000/svg" id="圖層_1" version="1.1" width="200px" height="200px" xmlns:xlink="http://www.w3.org/1999/xlink" style="width:100%;height:100%;background-size:initial;background-repeat-y:initial;background-repeat-x:initial;background-position-y:initial;background-position-x:initial;background-origin:initial;background-color:initial;background-clip:initial;background-attachment:initial;animation-play-state:paused" ><g class="ldl-scale" style="transform-origin:50% 50%;transform:rotate(0deg) scale(0.8, 0.8);animation-play-state:paused" ><path d="M58.438 9.085l-2.087 8.666" stroke-miterlimit="10" stroke-linecap="round" stroke-width="3.5" stroke="#333" fill="none" style="stroke:rgb(255, 209, 142);animation-play-state:paused" ></path>
<path d="M47.5 9.364l2.525 8.548" stroke-miterlimit="10" stroke-linecap="round" stroke-width="3.5" stroke="#333" fill="none" style="stroke:rgb(255, 209, 142);animation-play-state:paused" ></path>
<path d="M68.05 14.313l-6.14 6.461" stroke-miterlimit="10" stroke-linecap="round" stroke-width="3.5" stroke="#333" fill="none" style="stroke:rgb(255, 209, 142);animation-play-state:paused" ></path>
<g style="animation-play-state:paused" ><path stroke-miterlimit="10" stroke-linecap="round" stroke-width="3.5" stroke="#333" fill="#fff" d="M43.857 24.028l-10.252-3.126a2.922 2.922 0 0 0-3.648 1.944l-5.591 18.338-2.555 8.381a8.281 8.281 0 0 0 5.507 10.337h0a8.281 8.281 0 0 0 10.337-5.507l4.028-13.212 4.118-13.507a2.922 2.922 0 0 0-1.944-3.648z" style="stroke:rgb(255, 209, 142);fill:rgb(255, 209, 142);animation-play-state:paused" ></path>
<path d="M27.317 59.903l-5.422 17.783" stroke-miterlimit="10" stroke-linecap="round" stroke-width="3.5" stroke="#333" fill="none" style="stroke:rgb(255, 209, 142);animation-play-state:paused" ></path>
<path d="M14.905 75.555l13.98 4.262" stroke-miterlimit="10" stroke-linecap="round" stroke-width="3.5" stroke="#333" fill="none" style="stroke:rgb(255, 209, 142);animation-play-state:paused" ></path>
<path stroke-miterlimit="10" stroke-linecap="round" stroke-width="3.5" stroke="#333" fill="#f8b26a" d="M21.81 49.565a8.281 8.281 0 0 0 5.507 10.337h0a8.281 8.281 0 0 0 10.337-5.507l4.028-13.212H24.366l-2.556 8.382z" style="stroke:rgb(255, 209, 142);fill:rgb(39, 38, 38);animation-play-state:paused" ></path>
<path d="M27.147 49.467l.313-.956" stroke-miterlimit="10" stroke-linecap="round" stroke-width="3.5" stroke="#fff" fill="none" style="stroke:rgb(255, 209, 142);animation-play-state:paused" ></path>
<path d="M33.967 47.579l.314-.956" stroke-miterlimit="10" stroke-linecap="round" stroke-width="3.5" stroke="#fff" fill="none" style="stroke:rgb(255, 209, 142);animation-play-state:paused" ></path>
<path d="M30.161 54.582l.314-.955" stroke-miterlimit="10" stroke-linecap="round" stroke-width="3.5" stroke="#fff" fill="none" style="stroke:rgb(255, 209, 142);animation-play-state:paused" ></path>
<path d="M34.124 26.995l-1.372 4.382" stroke-miterlimit="10" stroke-linecap="round" stroke-width="3.5" stroke="#e0e0e0" fill="none" style="stroke:rgb(255, 209, 142);animation-play-state:paused" ></path>
<path stroke-miterlimit="10" stroke-linecap="round" stroke-width="3.5" stroke="#000" opacity=".2" d="M37.654 54.396l4.028-13.212h-6.221l-5.697 19.08a8.285 8.285 0 0 0 7.89-5.868z" style="animation-play-state:paused" ></path></g>
<g style="animation-play-state:paused" ><path stroke-miterlimit="10" stroke-linecap="round" stroke-width="3.5" stroke="#333" fill="#fff" d="M76.577 61.906l-1.538-5.233-6.338-21.568a2.922 2.922 0 0 0-3.629-1.98L54.79 36.147a2.922 2.922 0 0 0-1.98 3.629l4.966 16.898 2.91 9.903a8.282 8.282 0 1 0 15.891-4.671z" style="stroke:rgb(255, 209, 142);fill:rgb(255, 209, 142);animation-play-state:paused" ></path>
<path d="M70.966 72.187l5.242 17.838" stroke-miterlimit="10" stroke-linecap="round" stroke-width="3.5" stroke="#333" fill="none" style="stroke:rgb(255, 209, 142);animation-play-state:paused" ></path>
<path d="M69.196 92.085l14.023-4.121" stroke-miterlimit="10" stroke-linecap="round" stroke-width="3.5" stroke="#333" fill="none" style="stroke:rgb(255, 209, 142);animation-play-state:paused" ></path>
<path stroke-miterlimit="10" stroke-linecap="round" stroke-width="3.5" stroke="#333" fill="#f8b26a" d="M60.685 66.576a8.282 8.282 0 0 0 15.892-4.67l-1.538-5.233H57.775l2.91 9.903z" style="stroke:rgb(255, 209, 142);fill:rgb(39, 38, 38);animation-play-state:paused" ></path>
<path d="M71.643 63.564l-.314-.955" stroke-miterlimit="10" stroke-linecap="round" stroke-width="3.5" stroke="#fff" fill="none" style="stroke:rgb(255, 209, 142);animation-play-state:paused" ></path>
<path d="M64.823 61.677l-.314-.956" stroke-miterlimit="10" stroke-linecap="round" stroke-width="3.5" stroke="#fff" fill="none" style="stroke:rgb(255, 209, 142);animation-play-state:paused" ></path>
<path d="M67.898 67.949l-.314-.955" stroke-miterlimit="10" stroke-linecap="round" stroke-width="3.5" stroke="#fff" fill="none" style="stroke:rgb(255, 209, 142);animation-play-state:paused" ></path>
<path d="M58.393 40.99l1.268 4.414" stroke-miterlimit="10" stroke-linecap="round" stroke-width="3.5" stroke="#e0e0e0" fill="none" style="stroke:rgb(255, 209, 142);animation-play-state:paused" ></path>
<path stroke-miterlimit="10" stroke-linecap="round" stroke-width="3.5" stroke="#000" opacity=".2" d="M70.966 72.187a8.282 8.282 0 0 0 5.611-10.281l-1.538-5.233H72.74l-4.808 15.814a8.222 8.222 0 0 0 3.034-.3z" style="animation-play-state:paused" ></path></g>
<metadata xmlns:d="https://loading.io/stock/" style="animation-play-state:paused" ><d:name style="animation-play-state:paused" >cheers</d:name>
<d:tags style="animation-play-state:paused" >cheers,drink,toast,party,bar</d:tags>
<d:license style="animation-play-state:paused" >by</d:license>
<d:slug style="animation-play-state:paused" >sdr11n</d:slug></metadata></g><!-- generated by https://loading.io/ --></svg>