<?xml version="1.0" encoding="utf-8"?><svg xml:space="preserve" viewBox="0 0 100 100" y="0" x="0" xmlns="http://www.w3.org/2000/svg" id="圖層_1" version="1.1" width="200px" height="200px" xmlns:xlink="http://www.w3.org/1999/xlink" style="width:100%;height:100%;background-size:initial;background-repeat-y:initial;background-repeat-x:initial;background-position-y:initial;background-position-x:initial;background-origin:initial;background-color:initial;background-clip:initial;background-attachment:initial;animation-play-state:paused" ><g class="ldl-scale" style="transform-origin:50% 50%;transform:rotate(0deg) scale(0.8, 0.8);animation-play-state:paused" ><path stroke-miterlimit="10" stroke-linejoin="round" stroke-linecap="round" stroke-width="3.5" stroke="#333" fill="#a0c8d7" d="M32.369 25.733l-5.877-8.089a40.072 40.072 0 0 0-14.536 19.994l9.511 3.09a30.054 30.054 0 0 1 10.902-14.995z" style="stroke:rgb(255, 209, 142);fill:rgba(255, 209, 142, 0);animation-play-state:paused" ></path>
<path stroke-miterlimit="10" stroke-linejoin="round" stroke-linecap="round" stroke-width="3.5" stroke="#333" fill="#f8b26a" d="M50 20h0V10h0a39.811 39.811 0 0 0-23.508 7.644l5.877 8.089A29.86 29.86 0 0 1 50 20z" style="stroke:rgb(255, 209, 142);fill:rgb(248, 178, 106);animation-play-state:paused" ></path>
<path stroke-miterlimit="10" stroke-linejoin="round" stroke-linecap="round" stroke-width="3.5" stroke="#333" fill="#f8b26a" d="M78.533 40.729l9.511-3.09a40.072 40.072 0 0 0-14.536-19.994l-5.877 8.089a30.045 30.045 0 0 1 10.902 14.995z" style="stroke:rgb(255, 209, 142);fill:rgb(248, 178, 106);animation-play-state:paused" ></path>
<path stroke-miterlimit="10" stroke-linejoin="round" stroke-linecap="round" stroke-width="3.5" stroke="#333" fill="#a0c8d7" d="M67.631 25.733l5.877-8.089A39.811 39.811 0 0 0 50 10v10a29.86 29.86 0 0 1 17.631 5.733z" style="stroke:rgb(255, 209, 142);fill:rgba(255, 209, 142, 0);animation-play-state:paused" ></path>
<path stroke-miterlimit="10" stroke-linejoin="round" stroke-linecap="round" stroke-width="3.5" stroke="#333" fill="#a0c8d7" d="M80 50c0 3.237-.519 6.35-1.467 9.271l9.511 3.09C89.308 58.467 90 54.315 90 50s-.692-8.467-1.956-12.361l-9.511 3.09A29.973 29.973 0 0 1 80 50z" style="stroke:rgb(255, 209, 142);fill:rgba(255, 209, 142, 0);animation-play-state:paused" ></path>
<path stroke-miterlimit="10" stroke-linejoin="round" stroke-linecap="round" stroke-width="3.5" stroke="#333" fill="#f8b26a" d="M20 50c0-3.237.519-6.351 1.467-9.271l-9.511-3.09A39.963 39.963 0 0 0 10 50c0 4.315.692 8.467 1.956 12.361l9.511-3.09A29.973 29.973 0 0 1 20 50z" style="stroke:rgb(255, 209, 142);fill:rgb(248, 178, 106);animation-play-state:paused" ></path>
<path stroke-miterlimit="10" stroke-linejoin="round" stroke-linecap="round" stroke-width="3.5" stroke="#333" fill="#a0c8d7" d="M21.467 59.271l-9.511 3.09a40.072 40.072 0 0 0 14.536 19.994l5.877-8.089a30.045 30.045 0 0 1-10.902-14.995z" style="stroke:rgb(255, 209, 142);fill:rgba(255, 209, 142, 0);animation-play-state:paused" ></path>
<path stroke-miterlimit="10" stroke-linejoin="round" stroke-linecap="round" stroke-width="3.5" stroke="#333" fill="#f8b26a" d="M88.044 62.361l-9.511-3.09a30.052 30.052 0 0 1-10.902 14.996l5.877 8.089c6.751-4.914 11.902-11.884 14.536-19.995z" style="stroke:rgb(255, 209, 142);fill:rgb(248, 178, 106);animation-play-state:paused" ></path>
<path stroke-miterlimit="10" stroke-linejoin="round" stroke-linecap="round" stroke-width="3.5" stroke="#333" fill="#a0c8d7" d="M50 80v10a39.811 39.811 0 0 0 23.508-7.644l-5.877-8.089A29.86 29.86 0 0 1 50 80z" style="stroke:rgb(255, 209, 142);fill:rgba(255, 209, 142, 0);animation-play-state:paused" ></path>
<path stroke-miterlimit="10" stroke-linejoin="round" stroke-linecap="round" stroke-width="3.5" stroke="#333" fill="#f8b26a" d="M50 80a29.86 29.86 0 0 1-17.631-5.733l-5.877 8.089A39.811 39.811 0 0 0 50 90h0V80h0z" style="stroke:rgb(255, 209, 142);fill:rgb(248, 178, 106);animation-play-state:paused" ></path>
<path stroke="#333" fill="#e0e0e0" stroke-miterlimit="10" stroke-linejoin="round" stroke-linecap="round" stroke-width="3.5" d="M78.533 40.729a30.052 30.052 0 0 0-10.902-14.996A29.86 29.86 0 0 0 50 20h0a29.86 29.86 0 0 0-17.631 5.733 30.052 30.052 0 0 0-10.902 14.996A29.968 29.968 0 0 0 20 50c0 3.237.519 6.35 1.467 9.271a30.052 30.052 0 0 0 10.902 14.996A29.86 29.86 0 0 0 50 80h0a29.86 29.86 0 0 0 17.631-5.733 30.052 30.052 0 0 0 10.902-14.996C79.481 56.35 80 53.237 80 50s-.519-6.35-1.467-9.271z" style="stroke:rgb(255, 209, 142);fill:rgba(255, 209, 142, 0);animation-play-state:paused" ></path>
<path fill="#666" d="M50 34.74s-15 9.92-15 18.205v.099a7.5 7.5 0 0 0 7.5 7.5c1.973 0 3.329-.817 4.579-2.058.366-.364.971.01.802.498l-2.174 6.276h8.584l-2.174-6.276c-.169-.488.436-.861.802-.498 1.251 1.241 2.607 2.058 4.579 2.058a7.5 7.5 0 0 0 7.5-7.5v-.099C65 44.66 50 34.74 50 34.74z" style="fill:rgb(255, 209, 142);animation-play-state:paused" ></path>
<metadata xmlns:d="https://loading.io/stock/" style="animation-play-state:paused" ><d:name style="animation-play-state:paused" >chip</d:name>


<d:tags style="animation-play-state:paused" >chip,stake,bet,wager,ante,gamble,coin,token,money,casino</d:tags>


<d:license style="animation-play-state:paused" >by</d:license>


<d:slug style="animation-play-state:paused" >6qzgel</d:slug></metadata></g><!-- generated by https://loading.io/ --></svg>